HIERARCHY
ROOT Hips
{
	OFFSET 0.00 0.00 0.00
	CHANNELS 6 Xposition Yposition Zposition Xrotation Yrotation Zrotation
	JOINT LeftUpLeg
	{
		OFFSET 4.01464 0.00000 0.00000
		CHANNELS 3 Xrotation Yrotation Zrotation
		JOINT LeftLeg
		{
			OFFSET 0.00000 -17.30941 0.00000
			CHANNELS 3 Xrotation Yrotation Zrotation
			JOINT LeftFoot
			{
				OFFSET 0.00000 -15.75446 0.00000
				CHANNELS 3 Xrotation Yrotation Zrotation
				JOINT LeftToeBase
				{
					OFFSET 0.00000 -1.78212 6.65096
					CHANNELS 3 Xrotation Yrotation Zrotation
					End Site
					{
						OFFSET 0.00000 0.00000 2.95275
					}
				}
			}
		}
	}
	JOINT RightUpLeg
	{
		OFFSET -4.01464 0.00000 0.00000
		CHANNELS 3 Xrotation Yrotation Zrotation
		JOINT RightLeg
		{
			OFFSET 0.00000 -17.30941 0.00000
			CHANNELS 3 Xrotation Yrotation Zrotation
			JOINT RightFoot
			{
				OFFSET 0.00000 -15.75446 0.00000
				CHANNELS 3 Xrotation Yrotation Zrotation
				JOINT RightToeBase
				{
					OFFSET 0.00000 -1.78212 6.65096
					CHANNELS 3 Xrotation Yrotation Zrotation
					End Site
					{
						OFFSET 0.00000 0.00000 2.95275
					}
				}
			}
		}
	}
	JOINT Spine
	{
		OFFSET 0.00000 0.03937 0.00000
		CHANNELS 3 Xrotation Yrotation Zrotation
		JOINT Spine1
		{
			OFFSET 0.00000 5.33649 0.00000
			CHANNELS 3 Xrotation Yrotation Zrotation
			JOINT Neck
			{
				OFFSET 0.00000 11.38116 0.00000
				CHANNELS 3 Xrotation Yrotation Zrotation
				JOINT Head
				{
					OFFSET 0.00000 7.87376 0.00000
					CHANNELS 3 Xrotation Yrotation Zrotation
					End Site
					{
						OFFSET 0.00000 4.52755 0.00000
					}
				}
			}
			JOINT LeftShoulder
			{
				OFFSET 0.00000 11.38116 0.00000
				CHANNELS 3 Xrotation Yrotation Zrotation
				JOINT LeftArm
				{
					OFFSET 8.27455 -0.00003 0.00000
					CHANNELS 3 Xrotation Yrotation Zrotation
					JOINT LeftForeArm
					{
						OFFSET 11.66537 -0.00004 0.00000
						CHANNELS 3 Xrotation Yrotation Zrotation
						JOINT LeftHand
						{
							OFFSET 10.36419 -0.00004 0.00000
							CHANNELS 3 Xrotation Yrotation Zrotation
							JOINT LeftHandThumb
							{
								OFFSET 0.00000 0.00000 0.00000
								CHANNELS 3 Xrotation Yrotation Zrotation
								End Site
								{
									OFFSET 0.00000 0.00000 3.93700
								}
							}
							JOINT L_Wrist_End
							{
								OFFSET 3.93700 -0.00001 0.00000
								CHANNELS 3 Xrotation Yrotation Zrotation
							}
						}
					}
				}
			}
			JOINT RightShoulder
			{
				OFFSET 0.00000 11.38116 0.00000
				CHANNELS 3 Xrotation Yrotation Zrotation
				JOINT RightArm
				{
					OFFSET -8.27455 -0.00003 0.00000
					CHANNELS 3 Xrotation Yrotation Zrotation
					JOINT RightForeArm
					{
						OFFSET -11.66537 -0.00004 0.00000
						CHANNELS 3 Xrotation Yrotation Zrotation
						JOINT RightHand
						{
							OFFSET -10.36419 -0.00004 0.00000
							CHANNELS 3 Xrotation Yrotation Zrotation
							JOINT RightHandThumb
							{
								OFFSET 0.00000 0.00000 0.00000
								CHANNELS 3 Xrotation Yrotation Zrotation
								End Site
								{
									OFFSET 0.00000 0.00000 3.93700
								}
							}
							JOINT R_Wrist_End
							{
								OFFSET -5.39369 -0.00002 0.00000
								CHANNELS 3 Xrotation Yrotation Zrotation
							}
						}
					}
				}
			}
		}
	}
}
MOTION
Frames: 8
Frame Time: 0.010000
 0.9249 31.0485 -69.8733 12.3045 -9.5177 1.5908 -50.0418 3.3833 9.1618 92.4402 -0.0000 0.0000 -2.8352 9.2899 18.2850 -19.4220 0.0000 -0.0000 -11.0887 -14.4308 2.2249 45.2893 -0.0000 0.0000 -26.2014 4.8493 -35.5984 -24.0281 0.0000 0.0000 -23.6053 9.9091 0.5310 34.2814 1.4022 6.9109 40.0063 0.5147 1.0962 -23.5067 9.9695 -12.3319 12.7707 16.9390 33.1936 15.3446 -32.7994 -74.4051 -0.0004 -59.5361 -0.0002 12.9153 4.8876 -25.7232 -0.0000 -0.0000 0.0000 -0.0000 -0.0000 0.0000 5.6986 4.4621 -35.3599 11.7856 -0.3106 75.7770 -0.0013 81.0489 0.0011 -8.4602 10.0105 -7.4718 -0.0000 -0.0000 0.0000 -0.0000 -0.0000 0.0000
 0.9675 31.3028 -69.0324 12.1185 -9.6660 2.5497 -51.7811 4.4005 8.0377 90.9855 -0.0000 0.0000 -3.2248 9.7153 17.9447 -19.3220 0.0000 0.0000 -8.8067 -14.2777 0.8941 42.6162 -0.0000 0.0000 -24.4978 5.6171 -35.1255 -25.5748 0.0000 -0.0000 -23.1732 11.0480 0.7043 33.5618 1.7972 5.9024 40.8694 -0.0385 1.2094 -24.3654 9.8064 -11.4533 12.8255 17.9526 33.6981 17.5827 -31.8612 -72.6642 -0.0004 -60.2618 -0.0002 11.0338 4.1161 -25.6364 -0.0000 -0.0000 0.0000 -0.0000 -0.0000 0.0000 6.0529 4.6423 -35.4700 11.8008 -1.9266 74.1396 -0.0016 82.5721 0.0014 -8.5879 10.2141 -8.6646 -0.0000 0.0000 -0.0000 -0.0000 0.0000 -0.0000
 1.0136 31.5733 -68.1891 12.0674 -9.7881 3.5292 -53.3106 5.6125 7.0414 89.0874 -0.0000 0.0000 -3.9203 10.2349 17.7340 -19.3956 0.0000 -0.0000 -6.6263 -14.0921 -0.4079 39.8031 -0.0000 0.0000 -22.4522 6.3717 -34.3925 -26.5602 0.0000 0.0000 -22.7704 12.1706 0.7906 32.7690 2.3078 4.9804 41.5543 -0.4562 1.0776 -24.9042 9.2258 -10.2416 12.8817 18.8267 34.3300 19.5065 -30.8540 -71.0537 -0.0004 -60.8914 -0.0002 9.0017 3.2467 -26.0728 -0.0000 0.0000 -0.0000 -0.0000 0.0000 -0.0000 6.2950 4.7785 -35.6372 11.9141 -3.7111 72.7498 -0.0020 84.0265 0.0018 -9.3737 10.2114 -9.6116 -0.0000 0.0000 -0.0000 -0.0000 0.0000 -0.0000
 1.0480 31.8654 -67.3169 11.9816 -9.7814 4.2902 -54.6054 6.6568 6.0878 86.8789 -0.0000 0.0000 -4.2437 11.0547 17.2632 -19.5649 0.0000 0.0000 -4.1857 -14.1680 -1.4681 36.5497 -0.0000 0.0000 -19.8378 7.1537 -33.4587 -27.7204 0.0000 -0.0000 -22.2788 13.1891 0.9149 31.9421 2.8439 4.2318 42.4221 -0.8167 0.8569 -25.9458 8.5901 -9.0502 12.9114 19.5753 34.8037 21.2248 -29.6083 -69.4023 -0.0004 -61.5633 -0.0002 8.1799 2.9543 -27.2296 -0.0000 -0.0000 0.0000 -0.0000 -0.0000 0.0000 6.4200 5.0688 -35.9704 12.4436 -5.7176 71.8785 -0.0026 85.4344 0.0024 -9.8179 10.1733 -9.8203 -0.0000 0.0000 -0.0000 -0.0000 0.0000 -0.0000
 1.0886 32.1727 -66.4304 11.9005 -9.6494 5.0624 -55.5385 7.7715 5.0679 84.2911 -0.0000 0.0000 -4.6846 11.8588 17.0881 -19.4254 0.0000 0.0000 -1.6969 -14.4645 -2.5149 33.0514 0.0000 0.0000 -16.7084 7.8832 -32.8034 -28.8554 0.0000 0.0000 -21.9647 14.0600 0.9227 31.2954 3.2597 3.4943 43.1436 -1.3471 0.6405 -26.5144 8.2177 -7.7993 12.9506 20.2431 35.5799 22.6391 -28.2525 -68.3390 -0.0004 -62.1829 -0.0002 7.2223 2.8413 -27.2678 -0.0000 -0.0000 0.0000 -0.0000 -0.0000 0.0000 6.7063 5.0751 -36.2149 12.3600 -7.2625 70.9402 -0.0034 86.4649 0.0032 -10.7132 10.4815 -10.3538 -0.0000 0.0000 -0.0000 -0.0000 0.0000 -0.0000
 1.1232 32.4892 -65.5153 11.8038 -9.3741 5.6803 -56.1921 8.7367 4.0137 81.3978 -0.0000 0.0000 -4.8544 12.8292 16.7621 -20.1908 0.0000 0.0000 0.9159 -15.1545 -3.3578 29.2548 -0.0000 0.0000 -12.8692 8.6283 -32.1372 -30.8608 0.0000 -0.0000 -21.7460 14.7849 1.0085 30.8162 3.6047 2.8984 43.8296 -1.3870 0.0948 -27.2558 7.4916 -6.5409 13.0896 20.9755 36.0052 23.9863 -27.0436 -66.9589 -0.0004 -62.8603 -0.0003 7.1427 2.9381 -26.8760 -0.0000 -0.0000 0.0000 -0.0000 -0.0000 0.0000 6.8061 5.3499 -36.7217 12.6673 -9.1513 70.5999 -0.0053 87.7431 0.0051 -11.4404 9.7680 -9.8575 -0.0000 0.0000 -0.0000 -0.0000 0.0000 -0.0000
 1.1649 32.8183 -64.6083 11.7863 -9.2886 6.3800 -56.5885 9.8764 3.0480 78.1957 -0.0000 0.0000 -4.9879 13.7178 16.6121 -20.4774 0.0000 -0.0000 3.2145 -15.8161 -4.2497 25.6130 -0.0000 0.0000 -8.4592 9.3690 -31.4786 -32.8210 0.0000 -0.0000 -21.4641 15.6322 1.0732 30.2964 4.0543 2.2381 44.4096 -1.7644 -0.3951 -27.8575 6.9699 -5.1831 13.1525 21.5262 36.5722 25.1218 -26.0239 -65.8503 -0.0004 -63.3373 -0.0003 7.0256 2.9306 -26.4668 -0.0000 -0.0000 0.0000 -0.0000 -0.0000 0.0000 6.9522 5.5046 -37.1204 12.9500 -10.8166 70.2942 -0.0109 88.8963 0.0107 -12.1158 9.6834 -10.1834 -0.0000 0.0000 -0.0000 -0.0000 0.0000 -0.0000
 1.2036 33.1450 -63.6878 11.8685 -9.0783 7.1087 -56.8039 10.9652 1.9743 74.7688 -0.0000 0.0000 -5.0208 14.4381 16.4108 -20.7787 0.0000 -0.0000 5.2259 -17.0130 -5.1355 22.0563 -0.0000 0.0000 -3.5312 10.0764 -30.7121 -34.8008 0.0000 -0.0000 -21.2333 16.3756 1.0504 29.7754 4.4096 1.5759 44.8436 -1.9296 -0.9180 -28.2217 6.3719 -3.9404 13.2418 22.0491 37.0473 26.1901 -25.0274 -64.8061 -0.0004 -63.6436 -0.0003 6.9560 2.3080 -25.6258 -0.0000 -0.0000 0.0000 -0.0000 -0.0000 0.0000 7.1229 5.6404 -37.5173 13.1831 -12.3160 70.1340 -179.7973 89.9405 179.7970 -12.3998 9.5610 -10.2780 -0.0000 -0.0000 0.0000 -0.0000 -0.0000 0.0000
